<!-- landing curve -->
<svg width="1920" height="1080" viewBox="0 0 1920 1080">
<g clip-path="url(#clip0_83:78)">
<path d="M337.665 760.732C62.0647 760.732 10.6667 987.505 -0.5 1029.67V1082.5H1919L1969.5 1071.5C1941.33 977.5 2026.2 230.427 1919 230.427C1785 230.427 1831.97 647.095 1492.97 647.095C1153.97 647.095 1141.18 912.248 864.182 912.248C587.182 912.248 682.165 760.732 337.665 760.732Z" fill="#BA8C63"/>
</g>

</svg>


<!-- Full screen svg -->
<svg width="1920" height="1080" viewBox="0 0 1920 1080">
<g >
<path d="M-41.164 -21.6351C-316.764 -21.6351 10.6667 987.505 -0.499985 1029.67V1082.5H1919L1969.5 1071.5C1941.33 977.499 2050.89 -40.5746 1943.69 -40.5746C1809.69 -40.5746 1782.69 -74.6655 1443.69 -74.6655C1104.69 -74.6655 932.808 -142.848 655.808 -142.848C378.808 -142.848 303.336 -21.6351 -41.164 -21.6351Z" fill="#BA8C63"/>
</g>
</svg>


<!-- playnow-vector -->
<svg width="50" height="50" viewBox="0 0 50 50">
<g>
<path d="M41.9584 21.4375L12.5001 3.79165C11.87 3.42783 11.1557 3.23533 10.4281 3.23329C9.7006 3.23125 8.98521 3.41975 8.35313 3.78004C7.72106 4.14032 7.19434 4.65983 6.82537 5.28687C6.45641 5.91392 6.25806 6.62665 6.25006 7.35415L6.25006 42.6458C6.25805 43.3733 6.45641 44.086 6.82537 44.7131C7.19434 45.3401 7.72106 45.8596 8.35313 46.2199C8.98521 46.5802 9.7006 46.7687 10.4281 46.7667C11.1557 46.7646 11.87 46.5721 12.5001 46.2083L41.9584 28.5625C42.5707 28.1911 43.0769 27.6682 43.4282 27.0441C43.7795 26.4201 43.9641 25.7161 43.9641 25C43.9641 24.2839 43.7795 23.5798 43.4282 22.9558C43.0769 22.3318 42.5707 21.8089 41.9584 21.4375V21.4375Z" />
</g>
</svg>
<!-- instructions vector -->
<svg width="50" height="50" viewBox="0 0 50 50">
<path d="M25.0001 45.8333C36.506 45.8333 45.8334 36.5059 45.8334 25C45.8334 13.494 36.506 4.16663 25.0001 4.16663C13.4941 4.16663 4.16675 13.494 4.16675 25C4.16675 36.5059 13.4941 45.8333 25.0001 45.8333Z"/>
<path d="M18.9375 18.75C19.4273 17.3576 20.3941 16.1835 21.6666 15.4357C22.9391 14.6878 24.4352 14.4144 25.89 14.6639C27.3447 14.9135 28.6642 15.6698 29.6147 16.799C30.5653 17.9282 31.0855 19.3573 31.0833 20.8333C31.0833 25 24.8333 27.0833 24.8333 27.0833"/>
<path d="M25 35.4166H25.0208"/>
</svg>

<!-- back arrow -->
<svg width="50" height="50" viewBox="0 0 50 50">
<path d="M39.5878 27.5H42.0878V22.5H39.5878V27.5ZM0 25L25 39.4338V10.5662L0 25ZM39.5878 22.5H22.5V27.5H39.5878V22.5Z" fill="white"/>
</svg>